<svg xmlns="http://www.w3.org/2000/svg" width="30.754" height="26.91" viewBox="0 0 30.754 26.91">
  <defs>
    <style>
      .cls-1 {
        fill: #c3c3c3;
      }
    </style>
  </defs>
  <path id="comment" class="cls-1" d="M15.377,32c8.493,0,15.377,5.592,15.377,12.494a11.089,11.089,0,0,1-3.424,7.851A15.281,15.281,0,0,0,30.622,58.1a.478.478,0,0,1,.09.523.47.47,0,0,1-.438.288,13.737,13.737,0,0,1-8.445-3.087,18.319,18.319,0,0,1-6.451,1.165C6.884,56.988,0,51.4,0,44.494S6.884,32,15.377,32Z" transform="translate(0 -32)"/>
</svg>
