<svg xmlns="http://www.w3.org/2000/svg" width="10.123" height="8.858" viewBox="0 0 10.123 8.858">
  <defs>
    <style>
      .cls-1 {
        fill: rgba(0,0,0,0.6);
      }
    </style>
  </defs>
  <path id="comment" class="cls-1" d="M5.062,32c2.8,0,5.062,1.841,5.062,4.113A3.65,3.65,0,0,1,9,38.7a5.03,5.03,0,0,0,1.084,1.894.157.157,0,0,1,.03.172.155.155,0,0,1-.144.095,4.522,4.522,0,0,1-2.78-1.016,6.03,6.03,0,0,1-2.124.384C2.266,40.225,0,38.384,0,36.113S2.266,32,5.062,32Z" transform="translate(0 -32)"/>
</svg>
