<svg xmlns="http://www.w3.org/2000/svg" width="24" height="24" viewBox="0 0 24 24">
  <defs>
    <style>
      .cls-1 {
        fill: #e74525;
      }
    </style>
  </defs>
  <path id="chart-bar" class="cls-1" d="M15.6,80h1.8c.3,0,.6-.4.6-.8V70.8c0-.4-.3-.8-.6-.8H15.6c-.3,0-.6.4-.6.8v8.4C15,79.6,15.3,80,15.6,80Zm4.5,0h1.8c.3,0,.6-.4.6-.8V64.8c0-.4-.3-.8-.6-.8H20.1c-.3,0-.6.4-.6.8V79.2C19.5,79.6,19.8,80,20.1,80ZM6.6,80H8.4c.3,0,.6-.4.6-.8V74.8c0-.4-.3-.8-.6-.8H6.6c-.3,0-.6.4-.6.8v4.4C6,79.6,6.3,80,6.6,80Zm4.5,0h1.8c.3,0,.6-.4.6-.8V66.8c0-.4-.3-.8-.6-.8H11.1c-.3,0-.6.4-.6.8V79.2C10.5,79.6,10.8,80,11.1,80Zm12.15,4H3V65c0-.552-.336-1-.75-1H.75C.336,64,0,64.448,0,65V86c0,1.1.672,2,1.5,2H23.25c.414,0,.75-.448.75-1V85C24,84.447,23.664,84,23.25,84Z" transform="translate(0 -64)"/>
</svg>
