<svg xmlns="http://www.w3.org/2000/svg" width="34.094" height="30.311" viewBox="0 0 34.094 30.311">
  <defs>
    <style>
      .cls-1 {
        fill: #1492e6;
      }
    </style>
  </defs>
  <path id="edit" class="cls-1" d="M23.813,20.345l1.894-1.894a.476.476,0,0,1,.811.337v8.607a2.842,2.842,0,0,1-2.841,2.841H2.841A2.842,2.842,0,0,1,0,27.395V6.559A2.842,2.842,0,0,1,2.841,3.718H19.03a.477.477,0,0,1,.337.811L17.474,6.423a.469.469,0,0,1-.337.136H2.841V27.395H23.677V20.676A.466.466,0,0,1,23.813,20.345ZM33.083,8.4,17.539,23.944l-5.351.592a2.445,2.445,0,0,1-2.7-2.7l.592-5.351L25.625.942a3.455,3.455,0,0,1,4.9,0L33.077,3.5a3.467,3.467,0,0,1,.006,4.9Zm-5.848,1.829L23.8,6.79l-11,11-.432,3.865,3.865-.432ZM31.07,5.511,28.513,2.954a.618.618,0,0,0-.876,0L25.808,4.783l3.439,3.439,1.829-1.829A.631.631,0,0,0,31.07,5.511Z" transform="translate(0 0.075)"/>
</svg>
