<svg xmlns="http://www.w3.org/2000/svg" width="22" height="20" viewBox="0 0 22 20">
  <defs>
    <style>
      .cls-1 {
        fill: white;
      }
    </style>
  </defs>
  <path id="edit" class="cls-1" d="M15.377,3.347l3.445,3.524a.388.388,0,0,1,0,.539l-8.342,8.533-3.544.4a.752.752,0,0,1-.821-.84l.393-3.626L14.85,3.347a.368.368,0,0,1,.527,0Zm6.187-.895L19.7.545a1.47,1.47,0,0,0-2.108,0L16.24,1.928a.388.388,0,0,0,0,.539l3.445,3.524a.368.368,0,0,0,.527,0l1.352-1.383a1.553,1.553,0,0,0,0-2.157Zm-6.9,11.17V17.6H2.444V5.1h8.777a.464.464,0,0,0,.325-.137L13.074,3.4a.47.47,0,0,0-.325-.8H1.833A1.855,1.855,0,0,0,0,4.472V18.225A1.855,1.855,0,0,0,1.833,20.1H15.278a1.855,1.855,0,0,0,1.833-1.875V12.059a.458.458,0,0,0-.783-.332L14.8,13.29A.486.486,0,0,0,14.667,13.622Z" transform="translate(0 -0.1)"/>
</svg>
