<svg xmlns="http://www.w3.org/2000/svg" width="24" height="24" viewBox="0 0 24 24">
  <defs>
    <style>
      .cls-1 {
        fill: #1492e6;
      }
    </style>
  </defs>
  <path id="Path_357" data-name="Path 357" class="cls-1" d="M23.372,7.779l-10.5-7.5a1.5,1.5,0,0,0-1.743,0l-10.5,7.5a1.5,1.5,0,0,0,1.743,2.442L3,9.772V22.5A1.5,1.5,0,0,0,4.5,24h15A1.5,1.5,0,0,0,21,22.5V9.772a2.557,2.557,0,0,0,1.5.728,1.5,1.5,0,0,0,.873-2.721ZM18,21H15V16.5a3,3,0,0,0-6,0V21H6V7.629l6-4.286,6,4.286Z" transform="translate(0)"/>
</svg>
