<svg xmlns="http://www.w3.org/2000/svg" xmlns:xlink="http://www.w3.org/1999/xlink" width="19" height="19" viewBox="0 0 19 19">
  <defs>
    <style>
      .cls-1 {
        fill: none;
      }

      .cls-2 {
        clip-path: url(#clip-path);
      }

      .cls-3 {
        fill: #1492e6;
      }
    </style>
    <clipPath id="clip-path">
      <rect class="cls-1" width="19" height="19"/>
    </clipPath>
  </defs>
  <g id="Icon_Share_Filled" data-name="Icon / Share / Filled" class="cls-2">
    <rect id="Box" class="cls-1" width="19" height="19"/>
    <path id="Path_412" data-name="Path 412" class="cls-3" d="M822.833-1405.454a2.063,2.063,0,0,0-1.416.577l-5.149-3.108a2.536,2.536,0,0,0,.065-.524,2.536,2.536,0,0,0-.065-.524l5.092-3.078a2.117,2.117,0,0,0,1.473.607,2.205,2.205,0,0,0,2.167-2.247,2.2,2.2,0,0,0-2.167-2.247,2.2,2.2,0,0,0-2.167,2.247,2.532,2.532,0,0,0,.065.524l-5.092,3.078a2.117,2.117,0,0,0-1.473-.607A2.2,2.2,0,0,0,812-1408.51a2.2,2.2,0,0,0,2.167,2.247,2.116,2.116,0,0,0,1.473-.607l5.142,3.116a2.19,2.19,0,0,0-.058.487,2.152,2.152,0,0,0,2.109,2.187,2.152,2.152,0,0,0,2.109-2.187A2.152,2.152,0,0,0,822.833-1405.454Z" transform="translate(-809 1418)"/>
  </g>
</svg>
