<svg xmlns="http://www.w3.org/2000/svg" width="23.578" height="24" viewBox="0 0 23.578 24">
  <defs>
    <style>
      .cls-1 {
        fill: #e74525;
      }
    </style>
  </defs>
  <path id="Union_47" data-name="Union 47" class="cls-1" d="M-6254.834-1745a2.176,2.176,0,0,1-2.089-2.25v-3.511h2.089v3.232a.271.271,0,0,0,.261.28h10.187v-19.5h-10.187a.27.27,0,0,0-.261.28v4.152h-2.089v-4.432a2.177,2.177,0,0,1,2.089-2.251h15.323a2.177,2.177,0,0,1,2.089,2.251v19.5a2.176,2.176,0,0,1-2.089,2.25Zm-.129-8.649H-6261v-5.779h6.037v-2.168l8.048,5.057-8.048,5.054Z" transform="translate(6261 1768.999)"/>
</svg>
