<svg xmlns="http://www.w3.org/2000/svg" width="100" height="76" viewBox="0 0 100 76">
  <defs>
    <style>
      .cls-1, .cls-2 {
        fill: #e74525;
      }

      .cls-2 {
        font-size: 22px;
        font-family: TrebuchetMS, Trebuchet MS;
        letter-spacing: -0.09em;
      }
    </style>
  </defs>
  <g id="Group_310" data-name="Group 310" transform="translate(-10 -4)">
    <path id="Subtraction_64" data-name="Subtraction 64" class="cls-1" d="M11338.237,6367.285h0l-1.7-.026.04-2.35-.983.005-.028.2-.487.014-.04,1.96h-.972l-.135-2.757-2.185-.817-1.046-.04a2.568,2.568,0,0,0-.3-.322,3.471,3.471,0,0,0-.353-.283,2.872,2.872,0,0,0-.459-.267,2.293,2.293,0,0,0-.945-.212,1.111,1.111,0,0,0-.275.026l.068-1.052-.323-.416-.018-1.172-.175-.106-.028-.725-.843-.723-.052-1.086c.205-1.325.477-2.676.806-4.016.318-1.294.7-2.6,1.132-3.884s.921-2.53,1.45-3.741,1.121-2.421,1.746-3.577c.613-1.136,1.3-2.281,2.032-3.4s1.5-2.19,2.3-3.213,1.649-2.026,2.551-3,1.84-1.911,2.789-2.783l-.08,3.913a.243.243,0,0,0-.144.146.2.2,0,0,0,.031.158.617.617,0,0,0,.058.078l-.006,2.215a.287.287,0,0,0-.077.043.292.292,0,0,0-.115.132.278.278,0,0,0,.075.275c.028.03,0,1.137-.008,1.609v.018c0,.1,0,.16,0,.173a.26.26,0,0,0-.083.034.4.4,0,0,0-.149.152c-.071.131-.032.166.017.209a.273.273,0,0,1,.038.032.116.116,0,0,1,.028.1.149.149,0,0,1-.014.049,1.078,1.078,0,0,0-.144.166.584.584,0,0,0-.1.235.752.752,0,0,0,.009.315.989.989,0,0,0,.146.315,1.2,1.2,0,0,0,.086.119l0,.005.007.009.006.007,0,1.889a.374.374,0,0,0-.121.112.182.182,0,0,0-.057.156v.065a.184.184,0,0,0,.06.141.177.177,0,0,0,.058.04l-.009.952a4.4,4.4,0,0,0-.413.224,2.944,2.944,0,0,0-.341.235,1.336,1.336,0,0,0-.275.278,3.566,3.566,0,0,0-.209.321,1.849,1.849,0,0,0-.175.387,1.639,1.639,0,0,0-.074.47,2,2,0,0,0,.092.576,2.554,2.554,0,0,0,.212.516,1.765,1.765,0,0,0,.215.31.836.836,0,0,0,.235.192l-.021,11.847a1.132,1.132,0,0,0-.2.115,1.375,1.375,0,0,0-.189.158,1.572,1.572,0,0,0-.192.235,2.763,2.763,0,0,0-.32.639,1.808,1.808,0,0,0-.086.381,1.737,1.737,0,0,0,0,.427,4.441,4.441,0,0,0,.146.734,2.794,2.794,0,0,0,.1.279l0,.005-1.493.025-.08,5.557Zm4.219-.278h0l-.04-.427a.064.064,0,0,1,.011-.012l.007-.006.014-.013.029-.028c.485-.462,1.3-1.236,1.35-1.268l.043-.043a.269.269,0,0,0,.058.049.447.447,0,0,0,.144.06l.693,1.3c-.007,0-.224.061-.45.129a1.5,1.5,0,0,0-.458.178,2.5,2.5,0,0,1-.705.066C11342.824,6367,11342.506,6367.007,11342.456,6367.007Zm52.584-.424h0l-.484-.062c.159-.1.323-.208.487-.331l0,.393Zm-49.906-.425,0,0-.649-1.034h0v-.005a.067.067,0,0,0,0-.016,1.526,1.526,0,0,0,0-.171.66.66,0,0,0-.068-.315.341.341,0,0,0-.169-.141.4.4,0,0,0-.118-.023l-1.227-2.041a2.987,2.987,0,0,0,.218-.281,3.343,3.343,0,0,0,.384-.722,2.354,2.354,0,0,0,.118-1.287,2.09,2.09,0,0,0-.215-.6,2.243,2.243,0,0,0-.31-.45,2.56,2.56,0,0,0-.52-.467l-.014-11.451a1.06,1.06,0,0,0,.246-.155,1.671,1.671,0,0,0,.229-.229,2.1,2.1,0,0,0,.229-.364,2.772,2.772,0,0,0,.237-1.1,2.575,2.575,0,0,0-.054-.59,1.7,1.7,0,0,0-.184-.519,1.661,1.661,0,0,0-.307-.387,2.114,2.114,0,0,0-.339-.258,2.29,2.29,0,0,0-.372-.181c-.015-.005-.015-.006-.015-.007l-.046-.848a.732.732,0,0,0,.066-.12.687.687,0,0,0,.068-.275.278.278,0,0,0-.058-.195.145.145,0,0,0-.057-.04l-.04-1.809a2.044,2.044,0,0,0,.178-.272,1.474,1.474,0,0,0,.105-.255.559.559,0,0,0,.018-.264,1.046,1.046,0,0,0-.138-.347.6.6,0,0,0-.077-.1l0-.086a.066.066,0,0,1,.013-.022l.006-.009a.553.553,0,0,0,.05-.083.274.274,0,0,0,.034-.2.356.356,0,0,0-.135-.149.737.737,0,0,0-.1-.063l-.021-1.7a.154.154,0,0,1,.034-.04.45.45,0,0,0,.061-.115.265.265,0,0,0,.012-.163.623.623,0,0,0-.121-.2l-.014-.04-.006-2.093.01-.014c.009-.011.022-.029.039-.052a.555.555,0,0,0,.043-.275.267.267,0,0,0-.123-.135l-.058-4.053c1.062-.965,2.168-1.885,3.29-2.734s2.31-1.668,3.529-2.434c.613-.381,1.235-.75,1.849-1.1s1.243-.68,1.9-1.015,1.325-.649,1.952-.929c.655-.295,1.328-.578,2-.843.649-.258,1.339-.512,2.047-.754s1.4-.46,2.087-.659c.721-.21,1.438-.4,2.13-.568.729-.175,1.457-.333,2.164-.467s1.46-.263,2.2-.37c.79-.11,1.543-.2,2.235-.267.763-.07,1.524-.124,2.265-.16s1.508-.055,2.293-.055c.767,0,1.553.019,2.336.057.755.037,1.531.093,2.308.167.8.08,1.571.173,2.276.278.722.105,1.476.234,2.241.381s1.509.314,2.2.487c.756.186,1.483.383,2.164.585.733.219,1.447.449,2.121.685s1.366.494,2.078.779,1.39.579,2.029.875c.665.3,1.331.626,1.979.963.608.311,1.238.654,1.929,1.049.652.376,1.282.759,1.872,1.138.607.388,1.218.8,1.814,1.218.556.389,1.129.814,1.754,1.3.577.448,1.146.911,1.691,1.376s1.092.952,1.625,1.451,1.053,1.007,1.557,1.525c.52.532,1.021,1.067,1.487,1.591.5.563.977,1.122,1.413,1.659s.887,1.118,1.336,1.723c.409.554.832,1.155,1.258,1.786.41.611.807,1.231,1.176,1.843s.745,1.258,1.095,1.9c.344.627.682,1.285,1.006,1.955.318.654.626,1.328.915,2s.569,1.365.828,2.055.5,1.383.73,2.1c.217.668.431,1.39.637,2.144.213.8.388,1.516.533,2.184.154.7.3,1.446.433,2.225.123.715.234,1.475.33,2.259.092.756.166,1.527.221,2.293l-1.1-.121-.312-.212-.489.04-.081.763-.639.04-.312.255-.04-2.25-.367-.416-1.126.026-.043.536-.634.069.022.284-.421.055-.037.625-.665.066.028,2.52-.6-.055v-5.248l-.949-.161-1.058.132-.218,1.018-.462.054.081,1.152h-.514l0,.012s0,.029,0,.076c-.081,1.762-.117,2.758-.1,2.8s-.018.079-.086.138a1,1,0,0,1-.09.068l-.012.007-.79-.159-.055-5.678-1.358-.725-2.657-.106-.031-4.474-2.494-.857-3.156.47v6.418h-2.119c.143-1.8.216-4.283.216-7.37a72.055,72.055,0,0,0-.369-8.556,11.071,11.071,0,0,0-1.227-4.211,6.992,6.992,0,0,0-2.878-2.729,12.1,12.1,0,0,0-8.86,0,6.976,6.976,0,0,0-2.875,2.729,11.068,11.068,0,0,0-1.229,4.211,72.637,72.637,0,0,0-.367,8.556c0,.676,0,1.326.009,1.929l-.989.221v-.183h-.135v-1.356h-.028v-2.4h-.16v2.4h-.055v1.356h-.135v.22c-.772-.453-1.889-1.122-2.2-1.312q0-.428,0-.875a71.894,71.894,0,0,0-.37-8.556,11.059,11.059,0,0,0-1.227-4.211,7,7,0,0,0-2.875-2.729,12.1,12.1,0,0,0-8.86,0,6.956,6.956,0,0,0-2.878,2.729,11.122,11.122,0,0,0-1.229,4.211,72.806,72.806,0,0,0-.366,8.556c0,1.713.021,3.226.06,4.5l-.375.179-.055-.59-.1-.007h-.009c-.344-.026-1.39-.1-1.479-.127h-.009a3.442,3.442,0,0,0-.628.275c-.241.123-.484.257-.516.275l-.034.983h-.007c-.014-.007-.058-.027-.183-.1a.747.747,0,0,0-.3-.067v-20.915l-.5.078v-.321h-.2v.321l-3.371.542v-.132l-.949.132v.224h-.455v20.458l-1.213-1.138v-3.405h-.318v3.405l-1.484,1.391h-.318v1.895h-.318v2.015h-.8v2.485h-.636v2.978Zm-2.663-.1v0l-.055-3.294,0-.2,1.25,2.118,0,.249-1.193,1.125Zm47.381-4.916h-.037V6358.2h-2.944c-.01-.341-.014-.685-.014-1.052v-11.861c0-2.691.208-4.436.619-5.185a2.829,2.829,0,0,1,4.515-.023c.411.739.619,2.4.619,4.936v10.857h-.075l-2.683,5.271Zm-12.865-2.568h-.1c.042-.469.08-1,.113-1.625l-.017,1.624Zm-7.707,0h-3.9c-.018-.443-.026-.923-.026-1.427v-11.861c0-2.689.208-4.434.619-5.185a2.829,2.829,0,0,1,4.515-.023c.411.737.619,2.4.619,4.936v11.623a1.94,1.94,0,0,0-1.829,1.929v.008Zm-27.611-.673h0c-.1,0-.422,0-.437,0s-.04-.965-.04-.975l0-.144.476.292c.015.011.01.515.006.814v.013Zm.021-1.949h-.479v-.978l0-.144.474.29.009.831Zm-.015-1.984h-.476v-.977l-.006-.144.476.292.006.827Zm-.028-1.86h-.477v-.978l0-.144.477.29,0,.831Zm.057-1.875h-.479v-.977l0-.146.476.292.006.83Zm.04-2.023h-.479v-.978l0-.143.462.123.02,1Zm9.841-8.507h0l-.416-2.178,3.561-.579-.462,2.422-2.682.335Z" transform="translate(-11314.638 -6313)"/>
    <text id="China_Guide" data-name="China Guide" class="cls-2" transform="translate(10 75)"><tspan x="0" y="0">China Guide</tspan></text>
  </g>
</svg>
