<svg xmlns="http://www.w3.org/2000/svg" xmlns:xlink="http://www.w3.org/1999/xlink" width="24" height="24" viewBox="0 0 24 24">
  <defs>
    <style>
      .cls-1 {
        fill: none;
      }

      .cls-2 {
        clip-path: url(#clip-path);
      }

      .cls-3 {
        fill: #1492e6;
      }
    </style>
    <clipPath id="clip-path">
      <rect class="cls-1" width="24" height="24"/>
    </clipPath>
  </defs>
  <g id="Icon_Circle_Filled" data-name="Icon / Circle / Filled" class="cls-2">
    <rect id="Box" class="cls-1" width="24" height="24"/>
    <path id="shape" class="cls-3" d="M60-38A10,10,0,0,0,50-28,10,10,0,0,0,60-18,10,10,0,0,0,70-28,10,10,0,0,0,60-38Zm0,3a3,3,0,0,1,3,3,3,3,0,0,1-3,3,3,3,0,0,1-3-3A3,3,0,0,1,60-35Zm0,14.2a7.2,7.2,0,0,1-6-3.22c.03-1.99,4-3.08,6-3.08s5.97,1.09,6,3.08A7.2,7.2,0,0,1,60-20.8Z" transform="translate(-48 40)"/>
  </g>
</svg>
