<svg xmlns="http://www.w3.org/2000/svg" width="26.551" height="26.551" viewBox="0 0 26.551 26.551">
  <defs>
    <style>
      .cls-1 {
        fill: #48b06f;
      }
    </style>
  </defs>
  <path id="redo-alt" class="cls-1" d="M21.3,8a13.23,13.23,0,0,1,9.146,3.677l1.912-1.912a1.285,1.285,0,0,1,2.193.908v7.176a1.285,1.285,0,0,1-1.285,1.285H26.09a1.285,1.285,0,0,1-.908-2.193l2.235-2.235A8.993,8.993,0,1,0,27.2,28.044a.641.641,0,0,1,.876.03L30.2,30.2a.644.644,0,0,1-.026.933A13.276,13.276,0,1,1,21.3,8Z" transform="translate(-8 -8)"/>
</svg>
