<svg xmlns="http://www.w3.org/2000/svg" width="25" height="25" viewBox="0 0 25 25">
  <defs>
    <style>
      .cls-1 {
        fill: #fff;
      }

      .cls-2, .cls-5 {
        fill: #e74525;
      }

      .cls-2, .cls-3 {
        stroke: #e74525;
        stroke-width: 3px;
      }

      .cls-3 {
        fill: none;
      }

      .cls-4, .cls-5 {
        stroke: none;
      }
    </style>
  </defs>
  <g id="Group_91" data-name="Group 91" transform="translate(-69 -443)">
    <g id="Path_326" data-name="Path 326" class="cls-1" transform="translate(69 443)">
      <path class="cls-4" d="M 21.99157905578613 23.5 L 3.008419990539551 23.5 C 2.176670074462891 23.5 1.5 22.82332992553711 1.5 21.99157905578613 L 1.5 3.008419990539551 C 1.5 2.176670074462891 2.176670074462891 1.5 3.008419990539551 1.5 L 21.99157905578613 1.5 C 22.82332992553711 1.5 23.5 2.176670074462891 23.5 3.008419990539551 L 23.5 21.99157905578613 C 23.5 22.82332992553711 22.82332992553711 23.5 21.99157905578613 23.5 Z"/>
      <path class="cls-5" d="M 3.008420944213867 3 C 3.007287979125977 3 3.006362915039063 3.000024795532227 3.005733489990234 3.000024795532227 C 3.005548477172852 3.000024795532227 3.005390167236328 3.000022888183594 3.005258560180664 3.000017166137695 C 3.003345489501953 3.001380920410156 3.001028060913086 3.003519058227539 3.000406265258789 3.003519058227539 C 3.000320434570313 3.003519058227539 3.000267028808594 3.00347900390625 3.000249862670898 3.003389358520508 C 3.000240325927734 3.003400802612305 3 3.00493049621582 3 3.008420944213867 L 3 21.99156951904297 C 3 21.99304580688477 3.000043869018555 21.99416923522949 3.000019073486328 21.9947452545166 C 3.001569747924805 21.99691963195801 3.004121780395508 21.9996166229248 3.003389358520508 21.9997501373291 C 3.003400802612305 21.99975967407227 3.00493049621582 22 3.008420944213867 22 L 21.99156951904297 22 C 21.99272537231445 22 21.99366569519043 21.99997329711914 21.99429702758789 21.99997329711914 C 21.99447059631348 21.99997329711914 21.99462127685547 21.99997520446777 21.9947452545166 21.99998092651367 C 21.99665641784668 21.99861717224121 21.99897193908691 21.99648094177246 21.99959373474121 21.99648094177246 C 21.99967956542969 21.99648094177246 21.99973297119141 21.99652099609375 21.9997501373291 21.99661064147949 C 21.9997501373291 21.99658966064453 22 21.99505996704102 22 21.99156951904297 L 22 3.008420944213867 C 22 3.006956100463867 21.99995803833008 3.005838394165039 21.9999828338623 3.005258560180664 C 21.99843215942383 3.003084182739258 21.99587631225586 3.000383377075195 21.99661064147949 3.000249862670898 C 21.99658966064453 3.000249862670898 21.99505996704102 3 21.99156951904297 3 L 3.008420944213867 3 M 3.008420944213867 0 L 21.99156951904297 0 C 23.65307998657227 0 25 1.346920013427734 25 3.008420944213867 L 25 21.99156951904297 C 25 23.65307998657227 23.65307998657227 25 21.99156951904297 25 L 3.008420944213867 25 C 1.346920013427734 25 0 23.65307998657227 0 21.99156951904297 L 0 3.008420944213867 C 0 1.346920013427734 1.346920013427734 0 3.008420944213867 0 Z"/>
    </g>
    <g id="Group_291" data-name="Group 291" transform="translate(0 1.727)">
      <path id="Path_327" data-name="Path 327" class="cls-2" d="M0,0H17.195" transform="translate(70.014 451.273)"/>
      <line id="Line_64" data-name="Line 64" class="cls-3" x2="17.195" transform="translate(70.014 456.45)"/>
    </g>
  </g>
</svg>
