<svg xmlns="http://www.w3.org/2000/svg" width="29.285" height="29.284" viewBox="0 0 29.285 29.284">
  <defs>
    <style>
      .cls-1 {
        fill: #48b06f;
      }
    </style>
  </defs>
  <path id="volume-down" class="cls-1" d="M16.4,65.536,9.613,72.32H1.83A1.83,1.83,0,0,0,0,74.15V85.132a1.83,1.83,0,0,0,1.83,1.83H9.613L16.4,93.746a1.831,1.831,0,0,0,3.124-1.294V66.831A1.832,1.832,0,0,0,16.4,65.536Zm9.4,8.242a1.831,1.831,0,1,0-1.766,3.208,3.007,3.007,0,0,1,0,5.31A1.831,1.831,0,1,0,25.794,85.5a6.668,6.668,0,0,0,0-11.725Z" transform="translate(0 -64.999)"/>
</svg>
